Coordinates
version=1
nRows=9
nColumns=36
inDegrees=yes

Units are S.I. units (second, meters, Newtons, ...)
If the header above contains a line with 'inDegrees', this indicates whether rotational values are in degrees (yes) or radians (no).

endheader
time	pelvis_tilt	pelvis_list	pelvis_rotation	pelvis_tx	pelvis_ty	pelvis_tz	hip_flexion_r	hip_adduction_r	hip_rotation_r	knee_angle_r	knee_angle_r_beta	ankle_angle_r	subtalar_angle_r	mtp_angle_r	hip_flexion_l	hip_adduction_l	hip_rotation_l	knee_angle_l	knee_angle_l_beta	ankle_angle_l	subtalar_angle_l	mtp_angle_l	lumbar_extension	lumbar_bending	lumbar_rotation	arm_flex_r	arm_add_r	arm_rot_r	elbow_flex_r	pro_sup_r	arm_flex_l	arm_add_l	arm_rot_l	elbow_flex_l	pro_sup_l
      4.47500000	     -7.27544534	      1.24966834	      2.56521914	      0.26029335	      0.93549952	     -0.02476666	      9.44186927	     -5.13062928	    -14.22286624	     12.25912325	      0.21396206	     -7.39565624	      0.14598945	     -7.49999987	     13.08723757	     -6.64841829	     -7.05078825	     13.43141226	      0.23442237	    -13.91467859	      4.13287085	     -7.49999987	      2.97073807	      0.99311475	      2.72945489	    123.73045241	    -41.97015110	     53.97537769	     80.64888905	     74.43649006	    141.66393731	    -46.32640670	     77.65445831	     76.30007712	     72.40405963
      4.47916670	     -7.34904697	      1.24108155	      2.82035613	      0.25913088	      0.92440062	     -0.02462804	      9.82003998	     -5.26320362	    -13.52543096	     14.08652041	      0.24585616	     -2.57206663	     -1.27456850	     -7.49999987	     13.70851724	     -6.56997523	     -6.69256483	     15.55421733	      0.27147230	     -9.00488274	      2.94895080	     -7.49999987	      2.97055138	      1.03122153	      1.78925596	    123.16180291	    -41.35936771	     52.82182523	     80.53632985	     81.95792822	    143.51655290	    -47.37007026	     79.47556095	     76.75691238	     77.93452031
      4.48333330	     -7.33109806	      1.30900406	      2.86488066	      0.25888281	      0.91759206	     -0.02588964	     10.03325963	     -5.44064215	    -12.62280560	     15.24374503	      0.26605354	      1.72853252	     -2.05336190	     -7.49999987	     14.05778375	     -6.35520436	     -6.45821113	     17.30787134	      0.30207934	     -4.29044753	      2.19061751	     -7.49999987	      2.93789509	      1.05420309	      1.73892866	    123.02475539	    -41.44602231	     52.97218588	     80.82485684	     79.42287729	    143.33788750	    -47.63440032	     79.25697091	     76.83487627	     75.74605639
      4.48750000	     -7.37836450	      1.28488641	      3.21780826	      0.25999857	      0.91151949	     -0.02400436	      9.91669640	     -5.33386437	    -11.73143045	     15.78655864	      0.27552743	      5.91640184	     -1.74662176	     -7.49999987	     14.34648807	     -6.36041362	     -6.25229160	     18.92056181	      0.33022610	      0.06161487	      1.37120100	     -7.49999987	      3.10197529	      1.04959165	      1.55434673	    122.72714596	    -42.01349369	     53.24330986	     81.65257430	     79.49396345	    143.21541313	    -48.08937409	     79.56382427	     77.46114399	     75.75880171
      4.49166670	     -7.31254838	      1.29706948	      3.36563073	      0.26012771	      0.90421418	     -0.02326532	      9.63835832	     -5.11452132	    -10.39970047	     16.13618859	      0.28162962	      9.20046753	     -2.21822661	     -7.49999987	     14.38919121	     -6.36242462	     -5.88788810	     19.99683342	      0.34901058	      3.25529548	      0.37806403	     -7.49999987	      3.16998214	      1.00883784	      1.49145620	    122.17674578	    -42.31071858	     53.34960144	     82.17093655	     79.40459412	    142.97847697	    -48.48501794	     79.70259647	     77.83779375	     75.67774487
      4.49583330	     -7.15756444	      1.28792190	      3.47485185	      0.25748810	      0.90041556	     -0.02401607	      9.28256354	     -4.86751195	     -9.34450856	     16.14812029	      0.28183787	     11.68958232	     -2.44374734	     -7.49999987	     14.31994233	     -6.29249857	     -5.49904993	     20.62605843	      0.35999263	      5.93634468	     -0.14555761	     -7.49999987	      2.97500890	      1.10261240	      1.45226723	    121.47639270	    -42.77679764	     53.39788889	     82.86584482	     79.50304646	    142.58521724	    -49.15767083	     79.85979662	     78.38534845	     75.75414282
      4.50000000	     -7.01905291	      1.09307900	      3.60805199	      0.25867374	      0.89658686	     -0.02300741	      8.92814083	     -4.51180855	     -8.76211964	     16.30346333	      0.28454911	     13.86991024	     -2.20509925	     -7.49999987	     14.20873585	     -6.55901156	     -5.67884025	     21.10850454	      0.36841290	      8.81599012	      0.79894272	     -7.49999987	      2.72124692	      1.27984542	      1.35730461	    119.80152394	    -43.78273080	     51.54408212	     85.16164812	     79.91954702	    141.50416734	    -50.20094866	     78.42909110	     80.45019003	     76.09837774
      4.50416670	     -6.76959296	      0.97519508	      3.49125155	      0.25660033	      0.88630364	     -0.02188841	      8.94558256	     -4.20809133	     -7.77491818	     17.10236209	      0.29849253	     16.14831188	     -2.88914068	     -7.49999987	     14.08371258	     -6.62296728	     -5.11969511	     21.55552740	      0.37621493	     11.06511372	      0.08083306	     -7.49999987	      2.51096386	      1.48496023	      1.22798163	    118.85611018	    -44.24654048	     51.31364618	     86.11061877	     80.00481489	    141.20469298	    -50.91349742	     78.44861279	     81.11565894	     76.17249535
      4.50833330	     -6.42170354	      0.82853861	      3.43505517	      0.25675212	      0.88482492	     -0.02413321	      8.96009535	     -4.03418166	     -6.89534719	     17.99626139	      0.31409401	     17.39948899	     -3.95140539	     -7.49999987	     13.67909331	     -6.63692754	     -4.80169688	     21.70444243	      0.37881398	     12.93676195	     -0.43679731	     -7.49999987	      2.03417020	      1.90900220	      1.07598217	    116.92311098	    -45.00210858	     49.37100233	     88.69909886	     79.75037635	    140.48547996	    -52.47049447	     77.64215756	     83.31192644	     75.93331365
